<svg width="102" height="102" viewBox="0 0 102 102" fill="none" xmlns="http://www.w3.org/2000/svg">
<path fill-rule="evenodd" clip-rule="evenodd" d="M14.1659 12.6927L25.9967 24.5235L24.5233 25.9968L12.6926 14.1661L14.1659 12.6927Z" fill="#DFD7C4"/>
<path fill-rule="evenodd" clip-rule="evenodd" d="M72.2287 14.6734L60.3979 26.5041L58.9246 25.0308L70.7553 13.2001L72.2287 14.6734Z" fill="#DFD7C4"/>
<path fill-rule="evenodd" clip-rule="evenodd" d="M88.6677 31.1129L76.8369 42.9436L75.3636 41.4702L87.1943 29.6395L88.6677 31.1129Z" fill="#DFD7C4"/>
<path fill-rule="evenodd" clip-rule="evenodd" d="M26.1845 60.7176L14.3537 72.5483L12.8804 71.075L24.7111 59.2442L26.1845 60.7176Z" fill="#DFD7C4"/>
<path fill-rule="evenodd" clip-rule="evenodd" d="M42.6237 77.1568L30.793 88.9876L29.3196 87.5142L41.1504 75.6835L42.6237 77.1568Z" fill="#DFD7C4"/>
<path fill-rule="evenodd" clip-rule="evenodd" d="M42.6092 0V17.906H40.5256V0H42.6092Z" fill="#DFD7C4"/>
<path fill-rule="evenodd" clip-rule="evenodd" d="M0 42.6092H17.906V40.5256H0V42.6092Z" fill="#DFD7C4"/>
<path fill-rule="evenodd" clip-rule="evenodd" d="M102 59.3907H84.094V61.4744H102V59.3907Z" fill="#DFD7C4"/>
<path fill-rule="evenodd" clip-rule="evenodd" d="M59.3908 102V84.094H61.4745V102H59.3908Z" fill="#DFD7C4"/>
<path fill-rule="evenodd" clip-rule="evenodd" d="M77.4762 76.0031L89.3069 87.8338L87.8336 89.3072L76.0028 77.4764L77.4762 76.0031Z" fill="#DFD7C4"/>
<path fill-rule="evenodd" clip-rule="evenodd" d="M24.7806 25.1003C15.1563 34.7246 15.1563 50.3287 24.7806 59.953L42.0471 77.2194C51.6714 86.8437 67.2755 86.8437 76.8998 77.2194C86.5241 67.5951 86.5241 51.991 76.8998 42.3667L59.6333 25.1003C50.009 15.476 34.4049 15.476 24.7806 25.1003ZM50.5203 26.8589C54.5819 30.9205 54.5819 37.5057 50.5203 41.5674C46.4586 45.629 39.8734 45.629 35.8118 41.5674C31.7501 37.5057 31.7501 30.9205 35.8118 26.8589C39.8734 22.7973 46.4586 22.7973 50.5203 26.8589ZM37.5423 52.251C35.496 54.2972 35.496 57.6148 37.5423 59.6611C39.5885 61.7073 42.9061 61.7073 44.9523 59.6611C46.9985 57.6148 46.9985 54.2972 44.9523 52.251C42.9061 50.2048 39.5885 50.2048 37.5423 52.251ZM65.6805 67.9746C63.1044 65.3986 63.1045 61.2221 65.6805 58.6461C68.2565 56.0701 72.433 56.0701 75.009 58.6461C77.585 61.2221 77.585 65.3986 75.009 67.9746C72.433 70.5506 68.2565 70.5506 65.6805 67.9746Z" fill="#DFD7C4"/>
<path fill-rule="evenodd" clip-rule="evenodd" d="M26.2539 26.5736C17.4433 35.3842 17.4433 49.669 26.2539 58.4796L43.5204 75.7461C52.331 84.5567 66.6158 84.5567 75.4264 75.7461C84.237 66.9355 84.237 52.6507 75.4264 43.8401L58.1599 26.5736C49.3493 17.763 35.0645 17.763 26.2539 26.5736ZM51.9936 25.3855C56.869 30.2609 56.869 38.1654 51.9936 43.0407C47.1183 47.9161 39.2138 47.9161 34.3384 43.0407C29.4631 38.1654 29.4631 30.2609 34.3384 25.3855C39.2138 20.5102 47.1183 20.5102 51.9936 25.3855ZM36.0689 61.1344C33.209 58.2745 33.209 53.6376 36.0689 50.7777C38.9288 47.9177 43.5657 47.9177 46.4257 50.7777C49.2856 53.6376 49.2856 58.2745 46.4257 61.1344C43.5657 63.9944 38.9288 63.9944 36.0689 61.1344ZM64.2071 69.448C60.8174 66.0582 60.8174 60.5624 64.2071 57.1727C67.5968 53.783 73.0926 53.783 76.4824 57.1727C79.8721 60.5624 79.8721 66.0582 76.4824 69.448C73.0927 72.8377 67.5968 72.8377 64.2071 69.448ZM24.7806 59.953C15.1563 50.3287 15.1563 34.7246 24.7806 25.1003C34.4049 15.476 50.009 15.476 59.6333 25.1003L76.8998 42.3667C86.5241 51.991 86.5241 67.5951 76.8998 77.2194C67.2755 86.8437 51.6714 86.8437 42.0471 77.2194L24.7806 59.953ZM50.5203 41.5674C54.5819 37.5057 54.5819 30.9205 50.5203 26.8589C46.4586 22.7973 39.8734 22.7973 35.8118 26.8589C31.7501 30.9205 31.7501 37.5057 35.8118 41.5674C39.8734 45.629 46.4586 45.629 50.5203 41.5674ZM37.5423 59.6611C35.496 57.6148 35.496 54.2972 37.5423 52.251C39.5885 50.2048 42.9061 50.2048 44.9523 52.251C46.9985 54.2972 46.9985 57.6148 44.9523 59.6611C42.9061 61.7073 39.5885 61.7073 37.5423 59.6611ZM65.6805 58.6461C63.1045 61.2221 63.1044 65.3986 65.6805 67.9746C68.2565 70.5506 72.433 70.5506 75.009 67.9746C77.585 65.3986 77.585 61.2221 75.009 58.6461C72.433 56.0701 68.2565 56.0701 65.6805 58.6461Z" fill="#DFD7C4"/>
</svg>
