<svg width="108" height="108" viewBox="0 0 108 108" fill="none" xmlns="http://www.w3.org/2000/svg">
<rect x="20.3949" y="46.7108" width="37.6927" height="57.3571" rx="18.8463" transform="rotate(-45 20.3949 46.7108)" stroke="#DFD7C4" stroke-width="2"/>
<path d="M33.4 32.806L23.8727 23.2786" stroke="#DFD7C4" stroke-width="2"/>
<path d="M61.1037 33.2146L70.631 23.6873" stroke="#DFD7C4" stroke-width="2"/>
<path d="M74.3417 46.4533L83.869 36.926" stroke="#DFD7C4" stroke-width="2"/>
<path d="M24.0243 70.294L33.5516 60.7667" stroke="#DFD7C4" stroke-width="2"/>
<path d="M37.2627 83.5327L46.79 74.0054" stroke="#DFD7C4" stroke-width="2"/>
<path d="M46.5324 26.8837L46.5324 12.464" stroke="#DFD7C4" stroke-width="2"/>
<path d="M27.4781 45.9383L13.0583 45.9383" stroke="#DFD7C4" stroke-width="2"/>
<path d="M80.7795 61.1306L95.1992 61.1306" stroke="#DFD7C4" stroke-width="2"/>
<path d="M61.725 80.1853L61.725 94.605" stroke="#DFD7C4" stroke-width="2"/>
<path d="M84.3844 83.7901L74.857 74.2628" stroke="#DFD7C4" stroke-width="2"/>
<path d="M53.0352 34.8008C55.9156 37.6811 55.9156 42.3511 53.0352 45.2314C50.1549 48.1117 45.485 48.1117 42.6047 45.2314C39.7243 42.351 39.7243 37.6811 42.6047 34.8008C45.485 31.9205 50.1549 31.9205 53.0352 34.8008Z" stroke="#DFD7C4" stroke-width="2"/>
<ellipse cx="46.2747" cy="57.5255" rx="2.91322" ry="2.91323" transform="rotate(-45 46.2747 57.5255)" stroke="#DFD7C4" stroke-width="2"/>
<ellipse cx="69.7069" cy="63.448" rx="4.00568" ry="4.0057" transform="rotate(-45 69.7069 63.448)" stroke="#DFD7C4" stroke-width="2"/>
</svg>
