<svg width="68" height="79" viewBox="0 0 68 79" fill="none" xmlns="http://www.w3.org/2000/svg">
<path d="M26.0923 6.44565V25.0845L6.01211 55.4122C4.70896 57.5183 1.21417 63.468 1.21417 67.4169C1.21417 73.4192 4.9459 78 12.2317 78C18.0603 78 28.0471 78 34.0889 78" stroke="#DFD7C4" stroke-width="2"/>
<path d="M41.9077 6.44565V25.0845L61.988 55.4122C63.2911 57.5183 66.7859 63.468 66.7859 67.4169C66.7859 73.4192 63.0542 78 55.7684 78C49.9398 78 39.953 78 33.9112 78" stroke="#DFD7C4" stroke-width="2"/>
<path d="M3.52448 60.3086H64.6537" stroke="#DFD7C4" stroke-width="2"/>
<path d="M22.8936 36.6153H28.58" stroke="#DFD7C4"/>
<path d="M22.8936 41.3541H28.58" stroke="#DFD7C4"/>
<path d="M22.8936 46.0926H28.58" stroke="#DFD7C4"/>
<path d="M22.8936 50.8315H28.58" stroke="#DFD7C4"/>
<path d="M22.8936 55.5701H28.58" stroke="#DFD7C4"/>
<path d="M22.8936 65.0475H28.58" stroke="#DFD7C4"/>
<path d="M22.8936 69.786H28.58" stroke="#DFD7C4"/>
<path d="M22.8936 74.5248H28.58" stroke="#DFD7C4"/>
<rect x="22.6562" y="0.999939" width="22" height="4.88889" stroke="#DFD7C4" stroke-width="2"/>
</svg>
