<svg width="80" height="92" viewBox="0 0 80 92" fill="none" xmlns="http://www.w3.org/2000/svg">
<path d="M75.8963 70.2308H4.45014L2.23475 75.2154L1.68091 79.0923L2.7886 84.6308L6.66552 89.0615L12.204 91H57.0655H68.4194L73.9578 88.5077L76.4502 85.7385L78.1117 81.0308V77.4308L76.7271 72.7231L75.8963 70.2308Z" fill="#DFD7C4"/>
<path d="M30.7578 7.36469V29.1493L7.2886 64.5955C5.76552 67.057 1.68091 74.0109 1.68091 78.6262C1.68091 85.6416 6.04245 90.9955 14.5578 90.9955C21.3701 90.9955 33.0424 90.9955 40.104 90.9955" stroke="#DFD7C4" stroke-width="2"/>
<path d="M49.2423 7.36469V29.1493L72.7115 64.5955C74.2346 67.057 78.3192 74.0109 78.3192 78.6262C78.3192 85.6416 73.9577 90.9955 65.4423 90.9955C58.63 90.9955 46.9577 90.9955 39.8961 90.9955" stroke="#DFD7C4" stroke-width="2"/>
<path d="M4.38098 70.3187H75.8271" stroke="#DFD7C4" stroke-width="2"/>
<path d="M27.0192 42.6262H33.6653" stroke="#DFD7C4"/>
<path d="M27.0192 48.1647H33.6653" stroke="#DFD7C4"/>
<path d="M27.0192 53.7033H33.6653" stroke="#DFD7C4"/>
<path d="M27.0192 59.2418H33.6653" stroke="#DFD7C4"/>
<path d="M27.0192 64.7802H33.6653" stroke="#DFD7C4"/>
<path d="M27.0192 75.8571H33.6653" stroke="#4D699C"/>
<path d="M27.0192 81.3956H33.6653" stroke="#4D699C"/>
<path d="M27.0192 86.934H33.6653" stroke="#4D699C"/>
<rect x="26.7418" y="1.00006" width="25.713" height="5.714" stroke="#DFD7C4" stroke-width="2"/>
</svg>
