<svg width="81" height="81" viewBox="0 0 81 81" fill="none" xmlns="http://www.w3.org/2000/svg">
<path d="M1.59482 80V3.00001L78.5948 80H1.59482Z" stroke="#DFD7C4" stroke-width="2"/>
<path d="M18.9483 62.5518V41.5001L40.0001 62.5518H18.9483Z" stroke="#DFD7C4" stroke-width="2"/>
<path d="M1.40518 70.8965H6.14656" stroke="#DFD7C4" stroke-width="2"/>
<path d="M1.40518 62.5518H6.14656" stroke="#DFD7C4" stroke-width="2"/>
<path d="M1.40518 54.2069H6.14656" stroke="#DFD7C4" stroke-width="2"/>
<path d="M1.40518 45.8622H6.14656" stroke="#DFD7C4" stroke-width="2"/>
<path d="M1.40518 37.5172H6.14656" stroke="#DFD7C4" stroke-width="2"/>
<path d="M1.40518 29.1725H6.14656" stroke="#DFD7C4" stroke-width="2"/>
<path d="M1.40518 20.8276H6.14656" stroke="#DFD7C4" stroke-width="2"/>
<path d="M1.40518 12.4828H6.14656" stroke="#DFD7C4" stroke-width="2"/>
<path d="M10.0344 75.2586L10.0344 80" stroke="#DFD7C4" stroke-width="2"/>
<path d="M18.3793 75.2586L18.3793 80" stroke="#DFD7C4" stroke-width="2"/>
<path d="M26.7242 75.2586L26.7242 80" stroke="#DFD7C4" stroke-width="2"/>
<path d="M35.069 75.2586L35.069 80" stroke="#DFD7C4" stroke-width="2"/>
<path d="M43.4138 75.2586L43.4138 80" stroke="#DFD7C4" stroke-width="2"/>
<path d="M51.7586 75.2586L51.7586 80" stroke="#DFD7C4" stroke-width="2"/>
<path d="M60.1035 75.2586L60.1035 80" stroke="#DFD7C4" stroke-width="2"/>
<path d="M68.4482 75.2586L68.4482 80" stroke="#DFD7C4" stroke-width="2"/>
<path d="M42.2758 17.3189L48.6293 23.6724L51.0948 5.27582H67.5" stroke="#DFD7C4" stroke-width="2"/>
<path d="M54.7932 10.9656L65.9828 22.1553" stroke="#DFD7C4" stroke-width="2"/>
<path d="M65.9828 10.9656L54.7932 22.1553" stroke="#DFD7C4" stroke-width="2"/>
</svg>
