<svg width="90" height="90" viewBox="0 0 90 90" fill="none" xmlns="http://www.w3.org/2000/svg">
<path fill-rule="evenodd" clip-rule="evenodd" d="M90 90H0V0L90 90ZM47.3293 70.709H19.1866V42.5663L47.3293 70.709Z" fill="#DFD7C4"/>
<path d="M1.21613 78.5093H6.45827" stroke="#4D699C" stroke-width="2"/>
<path d="M1.21613 69.2832H6.45827" stroke="#4D699C" stroke-width="2"/>
<path d="M1.21613 60.0571H6.45827" stroke="#4D699C" stroke-width="2"/>
<path d="M1.21613 50.8309H6.45827" stroke="#4D699C" stroke-width="2"/>
<path d="M1.21613 41.6046H6.45827" stroke="#4D699C" stroke-width="2"/>
<path d="M1.21613 32.3785H6.45827" stroke="#4D699C" stroke-width="2"/>
<path d="M1.21613 23.1524H6.45827" stroke="#4D699C" stroke-width="2"/>
<path d="M1.21613 13.9261H6.45827" stroke="#4D699C" stroke-width="2"/>
<path d="M10.7565 83.3321L10.7565 88.5742" stroke="#4D699C" stroke-width="2"/>
<path d="M19.983 83.3322L19.983 88.5743" stroke="#4D699C" stroke-width="2"/>
<path d="M29.2094 83.3322L29.2094 88.5743" stroke="#4D699C" stroke-width="2"/>
<path d="M38.4352 83.3322L38.4351 88.5743" stroke="#4D699C" stroke-width="2"/>
<path d="M47.6616 83.3322L47.6616 88.5743" stroke="#4D699C" stroke-width="2"/>
<path d="M56.888 83.3322L56.888 88.5743" stroke="#4D699C" stroke-width="2"/>
<path d="M66.1138 83.3322L66.1138 88.5743" stroke="#4D699C" stroke-width="2"/>
<path d="M75.3402 83.3322L75.3402 88.5743" stroke="#4D699C" stroke-width="2"/>
<path d="M46.4037 19.2732L53.4282 26.2977L56.1541 5.95813H74.2919" stroke="#DFD7C4" stroke-width="2"/>
<path d="M60.2426 12.2487L72.6141 24.6201" stroke="#DFD7C4" stroke-width="2"/>
<path d="M72.6142 12.2487L60.2427 24.6201" stroke="#DFD7C4" stroke-width="2"/>
</svg>
