<svg width="94" height="92" viewBox="0 0 94 92" fill="none" xmlns="http://www.w3.org/2000/svg">
<rect x="7.32263" y="0.999939" width="78.3872" height="74.5163" stroke="#DFD7C4" stroke-width="2"/>
<rect x="1.51599" y="75.5161" width="90.9679" height="15.4839" fill="#DFD7C4" stroke="#DFD7C4" stroke-width="2"/>
<path d="M29.9644 56.8488C29.9644 59.2361 28.0291 61.1714 25.6418 61.1714C23.2545 61.1714 21.3192 59.2361 21.3192 56.8488C21.3192 54.4615 23.2545 52.5262 25.6418 52.5262C28.0291 52.5262 29.9644 54.4615 29.9644 56.8488Z" fill="#DFD7C4" stroke="#DFD7C4" stroke-width="2"/>
<path d="M40.7484 56.851C40.7484 59.2383 38.8132 61.1736 36.4259 61.1736C34.0386 61.1736 32.1033 59.2383 32.1033 56.851C32.1033 54.4637 34.0386 52.5284 36.4259 52.5284C38.8132 52.5284 40.7484 54.4637 40.7484 56.851Z" fill="#DFD7C4" stroke="#DFD7C4" stroke-width="2"/>
<path d="M51.2563 56.851C51.2563 59.2383 49.321 61.1736 46.9337 61.1736C44.5464 61.1736 42.6111 59.2383 42.6111 56.851C42.6111 54.4637 44.5464 52.5284 46.9337 52.5284C49.321 52.5284 51.2563 54.4637 51.2563 56.851Z" fill="#DFD7C4" stroke="#DFD7C4" stroke-width="2"/>
<path d="M62.0403 56.851C62.0403 59.2383 60.105 61.1736 57.7177 61.1736C55.3304 61.1736 53.3951 59.2383 53.3951 56.851C53.3951 54.4637 55.3304 52.5284 57.7177 52.5284C60.105 52.5284 62.0403 54.4637 62.0403 56.851Z" fill="#DFD7C4" stroke="#DFD7C4" stroke-width="2"/>
<path d="M82.7742 52.1121C82.7742 54.4994 80.8389 56.4347 78.4516 56.4347C76.0643 56.4347 74.129 54.4994 74.129 52.1121C74.129 49.7248 76.0643 47.7896 78.4516 47.7896C80.8389 47.7896 82.7742 49.7248 82.7742 52.1121Z" fill="#DFD7C4" stroke="#DFD7C4" stroke-width="2"/>
<path d="M25.7096 52.2904V0.999939" stroke="#DFD7C4" stroke-width="2"/>
<path d="M36.3547 52.2904V0.999939" stroke="#DFD7C4" stroke-width="2"/>
<path d="M46.9998 52.2904V0.999939" stroke="#DFD7C4" stroke-width="2"/>
<path d="M57.6454 52.2904V0.999939" stroke="#DFD7C4" stroke-width="2"/>
<path d="M77.0002 47.9355L68.2905 0.999939" stroke="#DFD7C4" stroke-width="2"/>
</svg>
