<svg width="80" height="79" viewBox="0 0 80 79" fill="none" xmlns="http://www.w3.org/2000/svg">
<rect x="6.05377" y="1" width="67.0646" height="63.7528" stroke="#DFD7C4" stroke-width="2"/>
<rect x="1.08588" y="64.7526" width="77.8281" height="13.2473" stroke="#DFD7C4" stroke-width="2"/>
<path d="M25.2806 48.7819C25.2806 50.7446 23.6896 52.3356 21.7269 52.3356C19.7642 52.3356 18.1731 50.7446 18.1731 48.7819C18.1731 46.8192 19.7642 45.2281 21.7269 45.2281C23.6896 45.2281 25.2806 46.8192 25.2806 48.7819Z" stroke="#DFD7C4" stroke-width="2"/>
<path d="M34.507 48.7837C34.507 50.7464 32.9159 52.3375 30.9532 52.3375C28.9905 52.3375 27.3994 50.7464 27.3994 48.7837C27.3994 46.821 28.9905 45.2299 30.9532 45.2299C32.9159 45.2299 34.507 46.821 34.507 48.7837Z" stroke="#DFD7C4" stroke-width="2"/>
<path d="M43.4971 48.7837C43.4971 50.7464 41.906 52.3375 39.9433 52.3375C37.9806 52.3375 36.3895 50.7464 36.3895 48.7837C36.3895 46.821 37.9806 45.2299 39.9433 45.2299C41.906 45.2299 43.4971 46.821 43.4971 48.7837Z" stroke="#DFD7C4" stroke-width="2"/>
<path d="M52.7234 48.7837C52.7234 50.7464 51.1323 52.3375 49.1696 52.3375C47.2069 52.3375 45.6158 50.7464 45.6158 48.7837C45.6158 46.821 47.2069 45.2299 49.1696 45.2299C51.1323 45.2299 52.7234 46.821 52.7234 48.7837Z" stroke="#DFD7C4" stroke-width="2"/>
<path d="M70.4624 44.7293C70.4624 46.692 68.8713 48.2831 66.9086 48.2831C64.9459 48.2831 63.3549 46.692 63.3549 44.7293C63.3549 42.7666 64.9459 41.1755 66.9086 41.1755C68.8713 41.1755 70.4624 42.7666 70.4624 44.7293Z" stroke="#DFD7C4" stroke-width="2"/>
<path d="M21.7849 44.8818V1" stroke="#DFD7C4" stroke-width="2"/>
<path d="M30.8923 44.8818V1" stroke="#DFD7C4" stroke-width="2"/>
<path d="M39.9998 44.8818V1" stroke="#DFD7C4" stroke-width="2"/>
<path d="M49.1077 44.8818V1" stroke="#DFD7C4" stroke-width="2"/>
<path d="M65.6668 41.156L58.2152 1" stroke="#DFD7C4" stroke-width="2"/>
</svg>
